<?xml version="1.0" encoding="utf-8"?>
<!-- Generator: Adobe Illustrator 21.0.0, SVG Export Plug-In . SVG Version: 6.00 Build 0)  -->
<svg version="1.1" id="Layer_1" xmlns="http://www.w3.org/2000/svg" xmlns:xlink="http://www.w3.org/1999/xlink" x="0px" y="0px"
	 viewBox="0 0 81.4 90" style="enable-background:new 0 0 81.4 90;" xml:space="preserve">
<style type="text/css">
	.st0{fill:none;}
	.st1{fill:#0AA8E0;}
	.st2{fill:#82BC41;}
	.st3{fill:#000000;}
	.st4{fill:#000000;}
</style>
<path class="st0" d="M50.7,80.5c0-1.1-0.4-2.1-1.1-2.8c-0.8-0.7-1.8-1.1-3-1.1h-2.5v7.8h2.5c1.2,0,2.1-0.4,2.9-1.1
	C50.3,82.7,50.7,81.7,50.7,80.5z"/>
<path class="st0" d="M26,63.2c-0.1-0.2-0.3-0.4-0.6-0.5c-0.3-0.1-0.7-0.1-1.3-0.1h-0.4v2.7h0.5c0.6,0,1-0.1,1.3-0.2
	c0.2-0.1,0.4-0.3,0.5-0.5s0.2-0.5,0.2-0.7C26.2,63.7,26.1,63.4,26,63.2z"/>
<polygon class="st0" points="35,49.1 33.6,52.6 36.5,52.6 "/>
<polygon class="st0" points="12.9,66.5 15.6,66.5 14.2,63.4 "/>
<path class="st0" d="M13.4,76.7h-2.5v7.8h2.5c1.2,0,2.1-0.4,2.9-1.1s1.2-1.7,1.2-2.8c0-1.1-0.4-2.1-1.1-2.8
	C15.6,77,14.6,76.7,13.4,76.7z"/>
<path class="st0" d="M75.8,48.5h-1.2v2.1h1.2c0.6,0,1.3-0.3,1.3-1.1C77.2,48.9,76.7,48.5,75.8,48.5z"/>
<polygon class="st0" points="59.2,52.6 62.1,52.6 60.6,49.1 "/>
<path class="st0" d="M5.1,62.7H3.8v2.7h1.3c0.5,0,0.9-0.1,1.1-0.3c0.3-0.2,0.4-0.6,0.4-1C6.7,63.1,6.1,62.7,5.1,62.7z"/>
<path class="st0" d="M66,62.6v2.7h0.5c0.6,0,1-0.1,1.3-0.2c0.2-0.1,0.4-0.3,0.5-0.5s0.2-0.5,0.2-0.7c0-0.3-0.1-0.5-0.2-0.7
	s-0.3-0.4-0.6-0.5c-0.3-0.1-0.7-0.1-1.3-0.1L66,62.6L66,62.6z"/>
<polygon class="st0" points="67.7,77.1 65.8,81.3 69.6,81.3 "/>
<path class="st1" d="M38.8,24.7c6.9-0.2,16.3,2.4,26.8,6.1c5,1.7,9.8,2.8,14.1,3.2v-6.7c-4.4-1.1-9.1-2.6-14.1-4.3
	c-10.5-3.6-19.9-4.3-26.8-2.2c-6.8,1.8-11,6.3-11.1,6.1C27.7,27.1,31.9,24.5,38.8,24.7z"/>
<path class="st1" d="M45.7,17.2c6.9-0.2,16.3,2.4,26.8,6.1c2.5,0.9,4.9,1.6,7.2,2.1v-7.5c-2.3-0.7-4.8-1.5-7.2-2.4
	c-10.5-3.6-20-4.3-26.8-2.2c-6.8,1.8-11,6.3-11.1,6.1C34.6,19.7,38.9,17.1,45.7,17.2z"/>
<path class="st1" d="M53.5,6.2c-6.8,1.8-11,6.3-11.1,6.1c0.1,0.3,4.3-2.3,11.1-2.2c6.7-0.2,16,2.3,26.2,5.9V8.2
	C69.5,4.7,60.3,4.2,53.5,6.2z"/>
<path class="st2" d="M2.1,17.5v7c8.3,2.5,15.8,2.8,21.4,1.1c6.2-1.6,10-5.7,10-5.5c0-0.3-3.8,2.1-10,2C18,22.2,10.5,20.3,2.1,17.5z"
	/>
<path class="st2" d="M2.1,32.5c5.5,0.9,10.4,0.7,14.4-0.6c6.2-1.6,10-5.7,10-5.5c0-0.3-3.8,2.1-10,2c-4,0.1-8.9-0.8-14.4-2.4V32.5z"
	/>
<path class="st2" d="M2.1,39.7c3,0,5.7-0.3,8.1-1.1c6.2-1.6,10-5.7,10-5.5c0-0.3-3.8,2.1-10,2c-2.4,0.1-5.1-0.3-8.1-0.8V39.7z"/>
<path class="st3" d="M77.9,51.8c1.1-0.5,1.6-1.2,1.6-2.3c0-1.4-1.1-2.7-3-2.7h-4.1V56h2.3v-3.8h0.7c1.2,0,1.6,1.8,2.6,3.8h2.5
	C79.2,53.4,78.9,52.2,77.9,51.8z M75.9,50.6h-1.2v-2.1h1.2c0.9,0,1.3,0.4,1.3,1C77.2,50.4,76.5,50.6,75.9,50.6z"/>
<rect x="67.5" y="46.8" class="st3" width="2.3" height="9.2"/>
<path class="st3" d="M64.7,61.6v8.5h1.2v-3.7h0.3c0.4,0,0.7,0,0.8,0.1c0.2,0.1,0.4,0.2,0.6,0.4c0.2,0.2,0.4,0.5,0.7,0.8l0.4,0.7
	l0.4,0.6l0.2,0.3l0.1,0.1l0.4,0.6h1.5l-0.5-0.6c-0.2-0.2-0.4-0.6-0.7-1.1c-0.5-0.8-0.8-1.3-1.1-1.6c-0.3-0.3-0.5-0.6-0.8-0.7
	c0.5-0.2,0.8-0.5,1.1-0.8c0.2-0.4,0.4-0.8,0.4-1.3c0-0.7-0.3-1.3-0.8-1.7c-0.5-0.4-1.2-0.6-2.1-0.6L64.7,61.6L64.7,61.6z M68.2,63.2
	c0.1,0.2,0.2,0.5,0.2,0.7c0,0.3-0.1,0.5-0.2,0.7s-0.3,0.4-0.5,0.5s-0.7,0.2-1.3,0.2H66v-2.7h0.4c0.6,0,1,0,1.3,0.1
	C67.9,62.9,68.1,63,68.2,63.2z"/>
<path class="st3" d="M77.2,69.1c-0.9,0-1.6-0.4-2.3-1.3v1.6c0.7,0.5,1.5,0.8,2.3,0.8c0.7,0,1.3-0.2,1.8-0.6s0.7-1,0.7-1.7
	c0-1-0.5-1.7-1.6-2.4L77.2,65c-0.4-0.2-0.7-0.5-0.9-0.7c-0.2-0.2-0.3-0.5-0.3-0.7c0-0.3,0.1-0.5,0.4-0.7s0.6-0.3,1-0.3
	c0.7,0,1.4,0.3,2,0.9v-1.4c-0.6-0.4-1.2-0.6-2-0.6c-0.7,0-1.4,0.2-1.8,0.6c-0.5,0.4-0.7,1-0.7,1.6c0,0.4,0.1,0.8,0.4,1.2
	c0.2,0.3,0.7,0.7,1.2,1l0.9,0.6c0.7,0.5,1.1,1,1.1,1.5c0,0.3-0.1,0.6-0.4,0.8C77.9,69,77.6,69.1,77.2,69.1z"/>
<polygon class="st3" points="60.3,69 56.6,69 56.6,66.4 60.1,66.4 60.1,65.3 56.6,65.3 56.6,62.7 60.2,62.7 60.2,61.6 55.4,61.6 
	55.4,70.1 60.3,70.1 "/>
<path class="st3" d="M14.7,61.5h-0.9l-3.7,8.6h1.3l1.1-2.5h3.6l1.1,2.5h1.3L14.7,61.5z M12.9,66.5l1.3-3.1l1.4,3.1H12.9z"/>
<path class="st3" d="M29.1,70.1l-0.5-0.6c-0.2-0.2-0.4-0.6-0.7-1.1c-0.5-0.8-0.8-1.3-1.1-1.6c-0.3-0.3-0.5-0.6-0.8-0.7
	c0.5-0.2,0.8-0.5,1.1-0.8c0.2-0.4,0.4-0.8,0.4-1.3c0-0.7-0.3-1.3-0.8-1.7c-0.5-0.4-1.2-0.6-2.1-0.6h-2.1v8.5h1.2v-3.7H24
	c0.4,0,0.7,0,0.8,0.1c0.2,0.1,0.4,0.2,0.6,0.4c0.2,0.2,0.4,0.5,0.7,0.8l0.4,0.7l0.4,0.6l0.2,0.3l0.1,0.1l0.4,0.6L29.1,70.1
	L29.1,70.1z M25.5,65.2c-0.2,0.1-0.7,0.2-1.3,0.2h-0.5v-2.7h0.4c0.6,0,1,0,1.3,0.1s0.5,0.2,0.6,0.5c0.1,0.2,0.2,0.5,0.2,0.7
	c0,0.3-0.1,0.5-0.2,0.7C25.9,64.9,25.7,65.1,25.5,65.2z"/>
<polygon class="st3" points="28.6,48.5 28.6,46.8 21.9,46.8 21.9,56.1 28.7,56.1 28.7,54.4 24.2,54.4 24.2,52.2 28.4,52.2 
	28.4,50.5 24.2,50.5 24.2,48.5 "/>
<polygon class="st3" points="34.2,70.1 35.4,70.1 35.4,62.7 38.4,62.7 38.4,61.6 31.2,61.6 31.2,62.7 34.2,62.7 "/>
<path class="st3" d="M5.3,61.6H2.6v8.5h1.2v-3.7h0.9c0.8,0,1.4-0.1,1.9-0.3c0.4-0.2,0.8-0.5,1-0.8C7.8,64.9,8,64.5,8,64
	c0-0.7-0.2-1.3-0.7-1.8C6.7,61.8,6.1,61.6,5.3,61.6z M6.3,65c-0.3,0.2-0.7,0.3-1.1,0.3H3.9v-2.7h1.3c1.1,0,1.6,0.4,1.6,1.3
	C6.7,64.4,6.6,64.7,6.3,65z"/>
<polygon class="st3" points="20.2,54.4 15.5,54.4 15.5,46.8 13.2,46.8 13.2,56.1 20.2,56.1 "/>
<path class="st3" d="M33,54.3h4.1l0.8,1.8h2.5l-4.1-9.2h-2.7l-3.7,9.2h2.4L33,54.3z M35,49.1l1.5,3.6h-2.8L35,49.1z"/>
<path class="st3" d="M7.3,56.2c1.4,0,2.3-0.3,3.6-0.9v-2c-1.3,0.6-2.1,1-3.3,1c-1.9,0-3.3-1.2-3.3-2.8c0-1.6,1.4-2.8,3.3-2.8
	c1.1,0,2.2,0.4,3.2,0.9v-2.1c-0.9-0.5-2.1-0.8-3.3-0.8C4,46.7,2,49,2,51.5C1.9,53.9,3.7,56.2,7.3,56.2z"/>
<polygon class="st3" points="44.2,50.2 49.3,56.1 51.2,56.1 51.2,46.8 48.9,46.8 48.9,52.5 44,46.8 41.9,46.8 41.9,56.1 44.2,56.1 
	"/>
<polygon class="st3" points="43.8,63.6 49.5,70.1 50.5,70.1 50.5,61.6 49.3,61.6 49.3,68.2 43.6,61.6 42.6,61.6 42.6,70.1 
	43.8,70.1 "/>
<path class="st3" d="M59.2,46.8L55.5,56h2.4l0.7-1.8h4.1l0.8,1.8H66l-4.1-9.2H59.2z M59.2,52.6l1.4-3.6l1.5,3.6H59.2z"/>
<rect x="52.6" y="80.1" class="st4" width="3.1" height="0.6"/>
<rect x="28.4" y="80.1" class="st4" width="3.1" height="0.6"/>
<path class="st4" d="M65.5,81.9h4.4l1.4,3.1H72l-4.2-9h-0.4l-4.2,9h0.7L65.5,81.9z M67.7,77.1l1.9,4.2h-3.9L67.7,77.1z"/>
<polygon class="st4" points="60.3,85.1 64,76.1 63.3,76.1 60.2,83.6 57,76.1 56.3,76.1 60.1,85.1 "/>
<polygon class="st4" points="41.3,85 41.3,76.1 40.6,76.1 37.2,80.2 33.7,76.1 33,76.1 33,85 33.7,85 33.7,77.1 37.2,81.3 
	40.6,77.1 40.6,85 "/>
<path class="st4" d="M24.4,85.1c1.1,0,2.1-0.3,3.2-0.8v-0.7c-1.2,0.6-2.2,0.9-3.2,0.9c-1.2,0-2.1-0.4-2.9-1.1s-1.1-1.7-1.1-2.8
	c0-1.1,0.4-2.1,1.1-2.8c0.8-0.8,1.7-1.1,2.8-1.1c1,0,2.1,0.3,3.2,0.9v-0.8c-1.1-0.5-2.2-0.7-3.2-0.7c-1.3,0-2.4,0.4-3.3,1.3
	s-1.4,2-1.4,3.3s0.5,2.4,1.4,3.3C21.9,84.7,23,85.1,24.4,85.1z"/>
<path class="st4" d="M13.3,76.1h-3.2V85h3.3c1.5,0,2.7-0.4,3.5-1.3c0.8-0.8,1.2-1.9,1.2-3.2c0-1.3-0.4-2.4-1.3-3.2
	C16.2,76.5,14.9,76.1,13.3,76.1z M16.3,83.4c-0.8,0.7-1.7,1.1-2.9,1.1h-2.5v-7.8h2.5c1.2,0,2.2,0.4,3,1.1s1.1,1.7,1.1,2.8
	C17.5,81.7,17.1,82.7,16.3,83.4z"/>
<path class="st4" d="M50.2,83.7c0.8-0.8,1.2-1.9,1.2-3.2c0-1.3-0.4-2.4-1.3-3.2c-0.8-0.8-2.1-1.2-3.7-1.2h-3.2V85h3.3
	C48.2,85,49.3,84.6,50.2,83.7z M44.1,84.4v-7.8h2.5c1.2,0,2.2,0.4,3,1.1s1.1,1.7,1.1,2.8c0,1.2-0.4,2.1-1.2,2.8
	c-0.8,0.7-1.7,1.1-2.9,1.1H44.1z"/>
</svg>
